# xmcd
#
# Track frame offsets: 
#        150
#        29944
#        49116
#        72704
#        97364
#        114359
#        132522
#        154109
#        174656
#        199504
#        210624
#        229769
#
# Disc length: 3341 seconds
#
# Revision: 1
# Processed by: cddbd v1.5.2PL0 Copyright (c) Steve Scherf et al.
# Submitted via: ExactAudioCopy v1.0b3
#
DISCID=b80d0b0c
DTITLE=Big T and the Family Band - Hellhound In My Shadow
DYEAR=2002
DGENRE=Blues
TTITLE0=1. Hellhound In My Shadow 
TTITLE1=2. Mississippi June Bug 
TTITLE2=3. Little Jeno 
TTITLE3=4. Ghetto 
TTITLE4=5. Ole Big T 
TTITLE5=6. You Don't Love Me 
TTITLE6=7. Waiting In Vain 
TTITLE7=8. I'll Play The Blues For You 
TTITLE8=9. I'm Looking For A Crossroads 
TTITLE9=10. It's Still Called The Blues 
TTITLE10=11. Catfish Blues (Live) 
TTITLE11=12. Black Night (Live)
EXTD=
EXTT0=
EXTT1=
EXTT2=
EXTT3=
EXTT4=
EXTT5=
EXTT6=
EXTT7=
EXTT8=
EXTT9=
EXTT10=
EXTT11=
PLAYORDER=
